Coordinates
version=1
nRows=33
nColumns=33
inDegrees=yes

Units are S.I. units (second, meters, Newtons, ...)
Angles are in degrees.

endheader
time	ground_thorax_rot_x	ground_thorax_rot_y	ground_thorax_rot_z	ground_thorax_tx	ground_thorax_ty	ground_thorax_tz	clav_prot_r	clav_elev_r	scapula_abduction_r	scapula_elevation_r	scapula_upward_rot_r	scapula_winging_r	shoulder_elv_r	plane_of_elev_r	axial_rot_r	elbow_flexion_r	pro_sup_r	wrist_flex_r	wrist_dev_r	clav_prot_l	clav_elev_l	scapula_abduction_l	scapula_elevation_l	scapula_upward_rot_l	scapula_winging_l	shoulder_elv_l	plane_of_elev_l	axial_rot_l	elbow_flexion_l	pro_sup_l	wrist_flex_l	wrist_dev_l	
4.7700	-17.597526	-39.771731	62.470458	-39.524641	831.228740	-44.635556	22.501959	-45.000000	45.000000	-45.000000	-20.130455	2401.330178	-1537.058641	143.236208	-180.000000	3589.132228	421.976447	27.032484	17.656704	-2.638001	33.520629	-30.247897	-45.000000	-45.000000	2970.971478	-6041.755682	26.455032	44.227412	1788.416201	-319.732206	14.590446	-17.618086	
4.7800	-17.450161	-39.838050	62.726209	-38.494692	830.675141	-44.516133	22.512633	-45.000000	45.000000	-45.000000	-20.153333	2401.267964	-1537.165718	143.202356	-180.000000	3589.095233	422.041807	26.948440	17.654369	-2.647801	33.504870	-30.192312	-45.000000	-45.000000	2970.942391	-6041.777733	26.445293	44.203003	1788.415356	-319.616292	14.558562	-17.559925	
4.7900	-17.302457	-39.899087	62.974947	-37.465843	830.108003	-44.397344	22.518802	-45.000000	45.000000	-45.000000	-20.193742	2401.209800	-1537.276019	143.173040	-180.000000	3589.060625	422.093215	26.874887	17.630422	-2.668947	33.492603	-30.131475	-45.000000	-45.000000	2970.901131	-6041.802709	26.426797	44.173856	1788.423285	-319.505943	14.529826	-17.515581	
4.8000	-17.147032	-39.960135	63.233461	-36.437371	829.527770	-44.280239	22.533643	-45.000000	44.999999	-45.000000	-20.244840	2401.143624	-1537.388987	143.139598	-180.000000	3589.029549	422.143827	26.793571	17.615271	-2.686452	33.480649	-30.069387	-45.000000	-45.000000	2970.865457	-6041.830616	26.412814	44.147576	1788.431371	-319.396069	14.496595	-17.462244	
4.8100	-16.988392	-40.018585	63.493403	-35.408813	828.935030	-44.165889	22.546850	-45.000000	44.999998	-45.000000	-20.307931	2401.077814	-1537.504724	143.109773	-180.000000	3589.000017	422.187982	26.713822	17.592988	-2.709911	33.467136	-30.005269	-45.000000	-45.000000	2970.821299	-6041.856688	26.393132	44.117910	1788.443266	-319.289085	14.463985	-17.413371	
4.8200	-16.822587	-40.078348	63.763156	-34.380150	828.330525	-44.055274	22.569595	-45.000000	44.999997	-45.000000	-20.377036	2401.003310	-1537.623140	143.073549	-180.000000	3588.973036	422.236539	26.625112	17.589921	-2.725766	33.451107	-29.939142	-45.000000	-45.000000	2970.787744	-6041.885346	26.385485	44.092113	1788.449690	-319.180135	14.428100	-17.352132	
4.8300	-16.652097	-40.136864	64.037142	-33.351494	827.714885	-43.949167	22.591175	-45.000000	44.999995	-45.000000	-20.455427	2400.930077	-1537.743110	143.040390	-180.000000	3588.949661	422.283476	26.533159	17.584177	-2.744853	33.430952	-29.874245	-45.000000	-45.000000	2970.744399	-6041.911472	26.366802	44.064339	1788.456659	-319.071908	14.389892	-17.290115	
4.8400	-16.483214	-40.194915	64.306522	-32.323155	827.088587	-43.848067	22.620065	-45.000000	44.999991	-45.000000	-20.544155	2400.856423	-1537.869265	143.004483	-180.000000	3588.928361	422.331820	26.446376	17.585328	-2.764923	33.414809	-29.813920	-45.000000	-45.000000	2970.709427	-6041.943348	26.354267	44.039281	1788.451835	-318.960857	14.352402	-17.223974	
4.8500	-16.307789	-40.254998	64.581707	-31.295546	826.451801	-43.752096	22.648782	-45.000000	44.999985	-45.000000	-20.640953	2400.785908	-1537.997560	142.969912	-180.000000	3588.911578	422.382631	26.355491	17.584966	-2.784484	33.393340	-29.749433	-45.000000	-45.000000	2970.664227	-6041.969897	26.329592	44.011355	1788.443710	-318.848605	14.311444	-17.153506	
4.8600	-16.134329	-40.316059	64.848327	-30.269149	825.804256	-43.660879	22.681709	-45.000000	44.999972	-45.000000	-20.754598	2400.714570	-1538.135068	142.929923	-180.000000	3588.897504	422.432612	26.283262	17.582575	-2.806554	33.378483	-29.670481	-45.000000	-45.000000	2970.632375	-6042.005234	26.325684	43.986527	1788.435539	-318.736303	14.275886	-17.092754	
4.8700	-15.955867	-40.377803	65.119099	-29.244427	825.145063	-43.573421	22.716346	-45.000000	44.999950	-45.000000	-20.875532	2400.646324	-1538.274468	142.894281	-180.000000	3588.890076	422.484660	26.214004	17.575703	-2.825466	33.358810	-29.584613	-45.000000	-45.000000	2970.594488	-6042.038179	26.315519	43.960355	1788.435355	-318.624056	14.239265	-17.036520	
4.8800	-15.781213	-40.438302	65.382206	-28.222036	824.472781	-43.488108	22.754126	-45.000000	44.999911	-45.000000	-21.007166	2400.577156	-1538.422277	142.857333	-180.000000	3588.884892	422.536749	26.161052	17.566284	-2.848187	33.343422	-29.495301	-45.000000	-45.000000	2970.568793	-6042.077809	26.319677	43.936849	1788.434530	-318.510287	14.209161	-16.990599	
4.8900	-15.597526	-40.500053	65.659416	-27.203067	823.785626	-43.402835	22.794927	-45.000000	44.999840	-45.000000	-21.139658	2400.505214	-1538.569006	142.823310	-180.000000	3588.883789	422.595578	26.092281	17.558749	-2.865853	33.320116	-29.402409	-45.000000	-45.000000	2970.528253	-6042.109839	26.304280	43.906035	1788.437343	-318.393621	14.170574	-16.933716	
4.9000	-15.411008	-40.559156	65.942825	-26.189039	823.081759	-43.315298	22.836518	-45.000000	44.999715	-45.000000	-21.284383	2400.425042	-1538.720330	142.786059	-180.000000	3588.882987	422.654854	26.022626	17.546146	-2.892211	33.299562	-29.303033	-45.000000	-45.000000	2970.487250	-6042.145031	26.293332	43.871293	1788.449011	-318.276846	14.130364	-16.878757	
4.9100	-15.219650	-40.614587	66.237548	-25.181504	822.359458	-43.223393	22.882949	-45.000000	44.999487	-45.000000	-21.430748	2400.340928	-1538.869494	142.751842	-180.000000	3588.885047	422.716553	25.943207	17.535346	-2.916328	33.274051	-29.207916	-45.000000	-45.000000	2970.437576	-6042.177956	26.269511	43.829079	1788.465841	-318.157891	14.087020	-16.817744	
4.9200	-15.030613	-40.664367	66.534378	-24.181950	821.617655	-43.125680	22.929225	-45.000000	44.999086	-45.000000	-21.587307	2400.251140	-1539.022348	142.716780	-180.000000	3588.885953	422.776849	25.861297	17.520288	-2.948998	33.250097	-29.115251	-45.000000	-45.000000	2970.388869	-6042.212982	26.247150	43.782671	1788.482327	-318.036342	14.045466	-16.755628	
4.9300	-14.842039	-40.711323	66.830201	-23.191326	820.856111	-43.021668	22.978764	-45.000000	44.998350	-45.000000	-21.750318	2400.159325	-1539.177368	142.680936	-180.000000	3588.886805	422.834696	25.784366	17.506231	-2.979252	33.225328	-29.016812	-45.000000	-45.000000	2970.342089	-6042.249974	26.228653	43.731521	1788.494844	-317.911113	14.010039	-16.694015	
4.9400	-14.655014	-40.753773	67.124752	-22.210176	820.075879	-42.911927	23.029380	-45.000000	44.997081	-45.000000	-21.926108	2400.064442	-1539.335861	142.645523	-180.000000	3588.891222	422.889411	25.702133	17.486262	-3.014924	33.201857	-28.912809	-45.000000	-45.000000	2970.292638	-6042.289443	26.213088	43.678257	1788.514005	-317.783550	13.972071	-16.630189	
4.9500	-14.469248	-40.793700	67.414570	-21.237857	819.278647	-42.797760	23.084042	-45.000000	44.994668	-45.000000	-22.108405	2399.968048	-1539.497359	142.607337	-180.000000	3588.893302	422.937430	25.641482	17.469800	-3.049143	33.179543	-28.807144	-45.000000	-45.000000	2970.258057	-6042.334211	26.213049	43.627808	1788.524989	-317.652760	13.948614	-16.577894	
4.9600	-14.283615	-40.832497	67.703468	-20.273486	818.467081	-42.680837	23.141505	-45.000000	44.990739	-45.000000	-22.296717	2399.874937	-1539.661533	142.574005	-180.000000	3588.899639	422.982542	25.570371	17.452717	-3.083696	33.154356	-28.709753	-45.000000	-45.000000	2970.221643	-6042.378792	26.202048	43.576874	1788.531002	-317.517793	13.921200	-16.518963	
4.9700	-14.098859	-40.872348	67.985902	-19.315786	817.644006	-42.562601	23.199921	-45.000000	44.982601	-45.000000	-22.494799	2399.785051	-1539.832515	142.539114	-180.000000	3588.903067	423.020391	25.507129	17.435030	-3.121375	33.133271	-28.609506	-45.000000	-45.000000	2970.189024	-6042.423393	26.194961	43.524800	1788.527571	-317.379908	13.896865	-16.462516	
4.9800	-13.912165	-40.911244	68.268220	-18.364025	816.812452	-42.443952	23.259800	-45.000000	44.971095	-45.000000	-22.701550	2399.703200	-1540.004956	142.510558	-180.000000	3588.913413	423.054823	25.420369	17.415838	-3.156813	33.109126	-28.511584	-45.000000	-45.000000	2970.144639	-6042.465010	26.174301	43.470487	1788.530973	-317.240452	13.857368	-16.394662	
4.9900	-13.727814	-40.948665	68.544640	-17.417479	815.974637	-42.325004	23.317534	-45.000000	44.950100	-45.000000	-22.920372	2399.624695	-1540.180875	142.477094	-180.000000	3588.917022	423.079206	25.340234	17.392341	-3.199828	33.092389	-28.409544	-45.000000	-45.000000	2970.101329	-6042.505779	26.159856	43.416740	1788.534823	-317.100802	13.817673	-16.332624	
5.0000	-13.542394	-40.984593	68.822229	-16.476156	815.132286	-42.205311	23.373059	-45.000000	44.921759	-45.000000	-23.148068	2399.554682	-1540.351748	142.451013	-180.000000	3588.927195	423.098903	25.240205	17.373780	-3.232923	33.068516	-28.310509	-45.000000	-45.000000	2970.053339	-6042.546466	26.135859	43.364063	1788.545331	-316.959761	13.766405	-16.263012	
5.0100	-13.363609	-41.018567	69.090357	-15.540334	814.286241	-42.084106	23.424437	-45.000000	44.878351	-45.000000	-23.389258	2399.487193	-1540.523822	142.418449	-180.000000	3588.929786	423.105587	25.148020	17.343681	-3.280377	33.056906	-28.209301	-45.000000	-45.000000	2970.002753	-6042.586444	26.114766	43.311838	1788.559190	-316.818698	13.714264	-16.201041	
5.0200	-13.179959	-41.051144	69.365230	-14.610900	813.436986	-41.960712	23.471979	-45.000000	44.828581	-45.000000	-23.636171	2399.424804	-1540.685079	142.391156	-180.000000	3588.940384	423.107421	25.045044	17.327358	-3.309116	33.031503	-28.109059	-45.000000	-45.000000	2969.956110	-6042.629124	26.095564	43.266547	1788.578562	-316.676470	13.658413	-16.137989	
5.0300	-13.007882	-41.079707	69.626226	-13.688901	812.584574	-41.834720	23.519966	-45.000000	44.763585	-45.000000	-23.893417	2399.360215	-1540.848395	142.354481	-180.000000	3588.935580	423.093264	24.964431	17.291587	-3.365466	33.027096	-28.016823	-45.000000	-45.000000	2969.909950	-6042.672998	26.077189	43.224188	1788.595666	-316.535049	13.610024	-16.091742	
5.0400	-12.834262	-41.103916	69.890648	-12.775606	811.728972	-41.706084	23.568701	-45.000000	44.697213	-45.000000	-24.148382	2399.298311	-1540.999716	142.326429	-180.000000	3588.941168	423.074637	24.883069	17.272921	-3.403072	33.009964	-27.938226	-45.000000	-45.000000	2969.872429	-6042.723054	26.058372	43.191255	1788.606641	-316.391959	13.564104	-16.046734	
5.0500	-12.670227	-41.122325	70.142830	-11.872662	810.870486	-41.575113	23.616761	-45.000000	44.622253	-45.000000	-24.408575	2399.234045	-1541.153326	142.293180	-180.000000	3588.942152	423.045864	24.805272	17.234306	-3.462667	33.006932	-27.864935	-45.000000	-45.000000	2969.828381	-6042.772241	26.036562	43.158489	1788.616013	-316.251105	13.519043	-16.008740	
5.0600	-12.497036	-41.137862	70.405978	-10.981900	810.009790	-41.442392	23.659525	-45.000000	44.550930	-45.000000	-24.667347	2399.172753	-1541.295981	142.266776	-180.000000	3588.957213	423.021367	24.713272	17.220975	-3.490589	32.980896	-27.782640	-45.000000	-45.000000	2969.788725	-6042.821699	26.026034	43.129110	1788.624726	-316.113445	13.471860	-15.964536	
5.0700	-12.329712	-41.150123	70.659732	-10.105281	809.148086	-41.308779	23.701416	-45.000000	44.471347	-45.000000	-24.936288	2399.111928	-1541.443909	142.232323	-180.000000	3588.962592	422.993747	24.617596	17.187411	-3.538741	32.966282	-27.691344	-45.000000	-45.000000	2969.742500	-6042.867636	26.017499	43.095374	1788.639085	-315.985164	13.424854	-15.926193	
5.0800	-12.154401	-41.159588	70.922779	-9.244343	808.286733	-41.175365	23.739184	-45.000000	44.394817	-45.000000	-25.207081	2399.056781	-1541.582617	142.204434	-180.000000	3588.979212	422.975199	24.512300	17.181357	-3.557975	32.933344	-27.590143	-45.000000	-45.000000	2969.697870	-6042.912838	26.013929	43.058336	1788.655887	-315.865868	13.372739	-15.878225	
5.0900	-11.984437	-41.166987	71.176796	-8.400383	807.427533	-41.043573	23.777570	-45.000000	44.311222	-45.000000	-25.488127	2399.004587	-1541.727861	142.170500	-180.000000	3588.988046	422.957966	24.404497	17.155650	-3.594571	32.908615	-27.482502	-45.000000	-45.000000	2969.654645	-6042.956664	26.014246	43.016065	1788.675319	-315.759499	13.326933	-15.836747	
